<svg width="220" height="56" viewBox="0 0 220 56" fill="none" xmlns="http://www.w3.org/2000/svg" role="img" aria-labelledby="logoTitle logoDesc">
  <title id="logoTitle">ShareHub Logo</title>
  <desc id="logoDesc">ShareHub brand logo.</desc>
  <g transform="translate(2,2)">
    <path d="M24 8C15 11 8 19 8 29C8 39 15 47 25 50C34 53 45 50 51 42" stroke="#000000" stroke-width="5" stroke-linecap="round"/>
    <path d="M44 8C53 11 60 19 60 29C60 39 53 47 43 50C34 53 23 50 17 42" stroke="#000000" stroke-width="5" stroke-linecap="round"/>
    <path d="M15 18C18 13 23 10 29 10C35 10 40 13 43 18" stroke="#000000" stroke-width="5" stroke-linecap="round"/>
    <path d="M15 40C18 45 23 48 29 48C35 48 40 45 43 40" stroke="#000000" stroke-width="5" stroke-linecap="round"/>
  </g>
  <text x="78" y="39" fill="#000000" font-size="34" font-family="-apple-system, BlinkMacSystemFont, 'Segoe UI', sans-serif" font-weight="500">ShareHub</text>
</svg>
