<svg width="220" height="56" viewBox="0 0 220 56" fill="none" xmlns="http://www.w3.org/2000/svg" role="img" aria-labelledby="logoTitle logoDesc">
  <title id="logoTitle">ShareHub Logo</title>
  <desc id="logoDesc">A minimal AI community logo with connected nodes and wordmark.</desc>
  <defs>
    <linearGradient id="sbGradient" x1="0" y1="0" x2="56" y2="56" gradientUnits="userSpaceOnUse">
      <stop offset="0" stop-color="#0F172A" />
      <stop offset="1" stop-color="#2563EB" />
    </linearGradient>
  </defs>

  <g transform="translate(0,0)">
    <rect x="2" y="2" width="52" height="52" rx="16" fill="#F8FAFC" stroke="#E2E8F0"/>
    <path d="M18 36L28 20L38 28" stroke="url(#sbGradient)" stroke-width="3" stroke-linecap="round" stroke-linejoin="round"/>
    <circle cx="18" cy="36" r="4" fill="#0F172A"/>
    <circle cx="28" cy="20" r="4" fill="#2563EB"/>
    <circle cx="38" cy="28" r="4" fill="#0F172A"/>
    <circle cx="28" cy="20" r="1.3" fill="#FFFFFF"/>
  </g>

  <g transform="translate(68,0)" fill="#0F172A">
    <path d="M4.59 36.07C6.31 37.17 8.4 37.74 10.85 37.74C13.57 37.74 15.76 37.08 17.42 35.78C19.08 34.46 19.92 32.71 19.92 30.53C19.92 28.94 19.45 27.62 18.5 26.58C17.56 25.53 16.1 24.69 14.12 24.06L10.74 22.95C9.64 22.6 8.84 22.18 8.33 21.68C7.82 21.17 7.56 20.52 7.56 19.73C7.56 18.76 7.9 17.97 8.58 17.35C9.28 16.72 10.2 16.41 11.34 16.41C12.35 16.41 13.29 16.63 14.15 17.07C15.02 17.49 15.78 18.1 16.43 18.88L19.11 16.02C18.24 14.92 17.11 14.06 15.72 13.46C14.34 12.84 12.86 12.53 11.29 12.53C8.75 12.53 6.66 13.2 5.03 14.54C3.42 15.86 2.61 17.59 2.61 19.72C2.61 21.32 3.06 22.68 3.96 23.81C4.88 24.92 6.28 25.78 8.16 26.39L11.41 27.45C12.62 27.84 13.49 28.26 14.03 28.71C14.58 29.15 14.86 29.76 14.86 30.52C14.86 31.52 14.48 32.32 13.72 32.94C12.98 33.56 11.99 33.87 10.74 33.87C9.47 33.87 8.27 33.56 7.13 32.95C6.01 32.33 5.05 31.42 4.25 30.22L1.49 33.25C2.37 34.44 3.41 35.39 4.59 36.07Z"/>
    <path d="M24.59 37.24H29.27V26.62C29.27 25.05 29.65 23.82 30.4 22.94C31.16 22.05 32.2 21.61 33.53 21.61C34.71 21.61 35.64 21.98 36.34 22.71C37.04 23.43 37.38 24.45 37.38 25.79V37.24H42.05V24.65C42.05 22.2 41.36 20.24 39.96 18.78C38.57 17.31 36.72 16.57 34.41 16.57C33 16.57 31.72 16.89 30.57 17.53C29.42 18.15 28.54 19.02 27.93 20.14V7.76H24.59V37.24Z"/>
    <path d="M58.19 37.8C60.06 37.8 61.71 37.47 63.14 36.82C64.58 36.15 65.69 35.21 66.48 33.99C67.29 32.78 67.69 31.37 67.69 29.78C67.69 28.21 67.29 26.81 66.48 25.58C65.69 24.34 64.58 23.38 63.14 22.71C61.71 22.03 60.06 21.69 58.19 21.69C56.31 21.69 54.64 22.03 53.18 22.71C51.74 23.38 50.62 24.34 49.82 25.58C49.03 26.81 48.63 28.21 48.63 29.78C48.63 31.37 49.03 32.78 49.82 33.99C50.62 35.21 51.74 36.15 53.18 36.82C54.64 37.47 56.31 37.8 58.19 37.8ZM58.19 34.06C56.78 34.06 55.64 33.67 54.76 32.89C53.88 32.1 53.45 31.07 53.45 29.78C53.45 28.5 53.88 27.47 54.76 26.69C55.64 25.91 56.78 25.51 58.19 25.51C59.59 25.51 60.72 25.91 61.58 26.69C62.45 27.47 62.88 28.5 62.88 29.78C62.88 31.07 62.45 32.1 61.58 32.89C60.72 33.67 59.59 34.06 58.19 34.06Z"/>
    <path d="M81.69 37.8C83.34 37.8 84.78 37.46 86.02 36.79C87.27 36.11 88.23 35.15 88.91 33.92C89.59 32.68 89.92 31.26 89.92 29.66C89.92 28.06 89.59 26.65 88.91 25.44C88.25 24.21 87.31 23.27 86.08 22.62C84.87 21.96 83.45 21.63 81.82 21.63C80.39 21.63 79.08 21.93 77.89 22.54C76.7 23.14 75.79 23.97 75.17 25.03V22.11H70.49V44.86H75.17V34.47C75.8 35.54 76.72 36.38 77.95 36.99C79.19 37.54 80.43 37.8 81.69 37.8ZM80.24 34.06C78.84 34.06 77.71 33.67 76.85 32.89C76 32.1 75.58 31.03 75.58 29.66C75.58 28.31 76 27.27 76.85 26.53C77.71 25.77 78.84 25.39 80.24 25.39C81.61 25.39 82.73 25.77 83.61 26.53C84.49 27.29 84.93 28.34 84.93 29.66C84.93 31 84.49 32.06 83.61 32.84C82.73 33.66 81.61 34.06 80.24 34.06Z"/>
    <path d="M101.82 37.8C103.38 37.8 104.78 37.51 106.02 36.93C107.28 36.36 108.26 35.57 108.95 34.57L106.18 31.79C105.7 32.45 105.05 32.97 104.24 33.36C103.43 33.73 102.52 33.92 101.51 33.92C100.08 33.92 98.91 33.53 98.01 32.76C97.11 31.97 96.62 30.94 96.54 29.66H110.12V28.2C110.12 26.24 109.76 24.56 109.04 23.16C108.33 21.76 107.31 20.7 105.99 19.98C104.69 19.24 103.16 18.88 101.41 18.88C99.62 18.88 98.02 19.25 96.61 19.99C95.23 20.74 94.15 21.8 93.37 23.18C92.61 24.53 92.23 26.1 92.23 27.9C92.23 29.73 92.63 31.34 93.45 32.74C94.26 34.12 95.38 35.2 96.79 35.97C98.21 36.77 99.89 37.19 101.82 37.8ZM96.67 26.41C96.86 25.35 97.34 24.52 98.11 23.9C98.9 23.29 99.9 22.99 101.12 22.99C102.23 22.99 103.15 23.29 103.86 23.88C104.59 24.47 105.02 25.31 105.16 26.41H96.67Z"/>
  </g>
</svg>
